<?xml version="1.0" encoding="iso-8859-1"?>
<!-- Generator: Adobe Illustrator 19.0.0, SVG Export Plug-In . SVG Version: 6.00 Build 0)  -->
<svg version="1.1" id="Capa_1" xmlns="http://www.w3.org/2000/svg" xmlns:xlink="http://www.w3.org/1999/xlink" x="0px" y="0px"
	 viewBox="0 0 508.399 508.399" style="enable-background:new 0 0 508.399 508.399;" xml:space="preserve">
<g>
	<g transform="translate(0 1)">
		<path style="fill:#FFEB3A;" d="M214.255,269.032l24.136,24.136L37.67,493.889c-6.665,6.665-17.471,6.665-24.136,0
			s-6.665-17.471,0-24.136L214.255,269.032z"/>
		<path style="fill:#6A1B9A;" d="M485.855,211.855c10.124-51.255-5.098-104.246-40.881-142.314s-87.731-56.537-139.514-49.601
			c-3.328,0.427-6.656,0.939-9.899,1.621c-1.451-0.768-2.816-1.536-4.181-2.219c-8.957-0.013-17.897,0.786-26.709,2.389
			c-1.365,0.171-2.731,0.427-4.096,0.683c-6.371-3.54-12.987-6.62-19.797-9.216l-77.056,77.056
			c-6.827,6.912-5.291,21.248,3.072,40.192v0.085c1.109,2.389,2.304,4.949,3.669,7.595c-12.653,46.394-4.028,96.011,23.537,135.414
			c27.566,39.403,71.22,64.514,119.14,68.532h0.085c9.856,0.853,19.771,0.767,29.611-0.256c8.935-0.902,17.782-2.529,26.453-4.864
			c2.645,1.365,5.205,2.56,7.595,3.669h0.085c2.219,0.939,4.352,1.877,6.485,2.645c15.701,5.973,27.563,6.485,33.707,0.427
			l78.421-78.421C504.031,256.826,499.765,237.285,485.855,211.855z M252.127,65.85c0.004-0.119-0.026-0.238-0.085-0.341
			c0.171,0.427,0.341,0.768,0.512,1.109C252.445,66.345,252.302,66.087,252.127,65.85z M441.909,255.375
			c-0.104-0.059-0.222-0.089-0.341-0.085l-0.768-0.512C441.14,255.027,441.513,255.228,441.909,255.375z"/>
		<path style="fill:#9D27B0;" d="M450.869,212.709c8.939-45.223-1.821-92.111-29.581-128.913
			c-27.76-36.802-69.889-60.027-115.827-63.855c-4.608-0.427-9.387-0.597-14.08-0.597c-8.957-0.013-17.897,0.786-26.709,2.389
			c-1.365,0.171-2.731,0.427-4.096,0.683c-6.371-3.54-12.987-6.62-19.797-9.216l-77.056,77.056
			c-6.827,6.912-5.291,21.248,3.072,40.192v0.085c1.109,2.389,2.304,4.949,3.669,7.595c-12.653,46.394-4.028,96.011,23.537,135.414
			c27.566,39.403,71.22,64.514,119.14,68.532h0.085c7.113-0.953,14.154-2.379,21.077-4.267c2.645,1.365,5.205,2.56,7.595,3.669
			h0.085c0.256,0.085,0.597,0.256,0.853,0.341c8.935-0.902,17.782-2.529,26.453-4.864c2.645,1.365,5.205,2.56,7.595,3.669h0.085
			c2.219,0.939,4.352,1.877,6.485,2.645l73.216-73.131l3.925-4.011C469.045,257.679,464.778,238.138,450.869,212.709z"/>
		<path style="fill:#AD1457;" d="M495.583,265.274l-78.421,78.421c-6.912,6.827-21.248,5.291-40.192-3.072h-0.085
			c-1.024-0.512-2.133-1.024-3.243-1.536c-1.451-0.683-2.901-1.365-4.352-2.133c-30.805-15.445-71.68-46.421-112.043-86.784
			c-40.363-40.363-71.339-81.237-86.784-112.043c-1.365-2.645-2.56-5.205-3.669-7.595v-0.085
			c-8.363-18.944-9.899-33.28-3.072-40.192l78.421-78.421c2.277-2.162,5.169-3.564,8.277-4.011
			c10.24-1.707,26.027,3.328,45.141,13.739c-6.14,1.194-12.209,2.732-18.176,4.608c-4.104,1.415-7.796,3.818-10.752,6.997
			l-12.032,13.141c-4.88,5.332-5.871,13.161-2.475,19.541c22.952,38.9,51.053,74.522,83.541,105.899
			c27.048,27.535,56.907,52.16,89.088,73.472c5.803,3.84,11.435,7.168,16.811,10.069c6.381,3.397,14.209,2.405,19.541-2.475
			l3.072-2.816l10.069-9.216c3.179-2.956,5.582-6.648,6.997-10.752c1.876-5.967,3.414-12.036,4.608-18.176
			C499.765,237.285,504.031,256.826,495.583,265.274z"/>
		<path style="fill:#E91E63;" d="M464.181,249.999c-0.508,2.55-1.754,4.894-3.584,6.741l-78.421,78.421
			c-2.341,2.204-5.337,3.582-8.533,3.925c-1.451-0.683-2.901-1.365-4.352-2.133c-30.805-15.445-71.68-46.421-112.043-86.784
			c-40.363-40.363-71.339-81.237-86.784-112.043c-1.365-2.645-2.56-5.205-3.669-7.595v-0.085
			c-8.363-18.944-9.899-33.28-3.072-40.192l78.421-78.421c2.277-2.162,5.169-3.564,8.277-4.011
			c3.243,1.536,6.656,3.328,10.155,5.205c-6.14,1.194-12.209,2.732-18.176,4.608c-4.104,1.415-7.796,3.818-10.752,6.997
			l-11.947,13.141c-4.964,5.293-5.963,13.178-2.475,19.541c22.918,38.9,50.991,74.523,83.456,105.899
			c31.376,32.465,66.998,60.538,105.899,83.456c5.795,3.234,12.967,2.662,18.176-1.451c5.803,3.84,11.435,7.168,16.811,10.069
			c6.381,3.397,14.209,2.405,19.541-2.475L464.181,249.999z"/>
		
			<ellipse transform="matrix(-0.0441 -0.999 0.999 -0.0441 282.8741 606.1226)" style="fill:#F5F5F5;" cx="431.407" cy="167.734" rx="34.133" ry="21.333"/>
	</g>
	<g>
		<path d="M432.326,211.379h0.964c16.725-0.734,29.013-20.036,27.955-43.938c-0.271-10.064-3.319-19.856-8.806-28.297
			c-4.831-8.055-13.528-12.993-22.921-13.013c-16.725,0.742-29.013,20.045-27.947,43.947c0.263,10.051,3.296,19.834,8.764,28.271
			C415.038,206.083,423.283,210.969,432.326,211.379z M422.7,149.487c2.21-3.908,4.966-6.212,7.578-6.332h0.205
			c3.372,0.534,6.297,2.619,7.902,5.632c3.645,5.82,5.652,12.514,5.811,19.379c0.64,14.635-5.623,25.873-11.665,26.138
			c-3.456-0.45-6.479-2.55-8.107-5.632c-3.647-5.818-5.652-12.514-5.803-19.379C418.164,162.443,419.574,155.598,422.7,149.487z"/>
		<path d="M25.601,508.399c6.791,0.015,13.308-2.679,18.108-7.484l182.076-182.084c40.878,30.321,93.221,40.661,142.558,28.16
			c1.502,0.725,3.038,1.493,4.463,2.142c0.239,0.128,0.486,0.256,0.742,0.367c9.718,4.748,20.294,7.488,31.095,8.055
			c6.86,0.36,13.568-2.108,18.56-6.827l78.421-78.421c10.965-10.982,8.533-31.488-6.886-60.809
			c9.841-54.895-7.798-111.132-47.227-150.573S351.851,3.829,296.953,13.653C267.632-1.809,247.127-4.19,236.144,6.775
			l-78.396,78.438c-9.489,9.489-9.071,26.197,1.237,49.655c0.104,0.244,0.224,0.48,0.358,0.708c0.649,1.434,1.417,2.987,2.142,4.497
			c-12.335,49.357-2.058,101.644,28.041,142.66L7.502,464.708c-7.313,7.322-9.498,18.327-5.538,27.888
			C5.925,502.157,15.253,508.393,25.601,508.399z M381.015,334.114c-0.192-0.113-0.392-0.213-0.597-0.299
			c-2.313-1.041-4.745-2.193-7.262-3.465c-31.471-15.821-71.509-46.933-109.85-85.24s-69.419-78.379-85.239-109.833
			c-1.269-2.537-2.423-4.964-3.465-7.279c-0.086-0.198-0.183-0.392-0.29-0.58c-7.731-17.835-7.296-27.383-4.54-30.14l60.877-60.877
			c0.718,3.407,1.644,6.767,2.773,10.061c0.282,0.853,0.589,1.647,0.913,2.483l0.427,1.135
			c13.175,34.304,48.64,82.406,94.916,128.657s94.353,81.741,128.751,94.95l1.041,0.393c0.853,0.324,1.647,0.631,2.406,0.853
			c3.31,1.146,6.687,2.089,10.112,2.825l-60.851,60.851C408.381,341.402,398.841,341.845,381.015,334.114z M270.662,20.506
			c-0.811,0.282-1.655,0.495-2.466,0.794c-2.881,1.032-4.99,3.527-5.525,6.54c-0.536,3.013,0.583,6.083,2.932,8.044
			c2.349,1.961,5.569,2.515,8.438,1.45c56.143-20.44,119.044-6.498,161.293,35.75c42.248,42.248,56.19,105.15,35.75,161.293
			c-1.065,2.869-0.512,6.089,1.45,8.438c1.961,2.349,5.031,3.468,8.044,2.932s5.509-2.644,6.54-5.525
			c0.299-0.811,0.512-1.655,0.794-2.466c4.745,13.44,3.755,20.352,1.707,22.443c-2.244,2.261-9.259,3.081-22.187-1.399l-2.901-1.075
			c-31.71-12.177-78.729-47.061-122.709-91.051s-78.95-90.999-91.059-122.624l-1.143-3.063c-4.437-12.894-3.618-19.891-1.374-22.144
			C250.301,16.742,257.213,15.761,270.662,20.506z M174.457,163.302c22.074,34.015,47.829,65.494,76.8,93.867
			c28.371,28.972,59.85,54.728,93.867,76.8c-46.779,5.695-93.577-10.446-126.899-43.768S168.762,210.081,174.457,163.302z
			 M19.568,476.774l180.557-180.548l12.066,12.066L31.643,488.849c-3.334,3.334-8.74,3.334-12.075,0
			C16.234,485.515,16.234,480.109,19.568,476.774z"/>
	</g>
</g>
<g>
</g>
<g>
</g>
<g>
</g>
<g>
</g>
<g>
</g>
<g>
</g>
<g>
</g>
<g>
</g>
<g>
</g>
<g>
</g>
<g>
</g>
<g>
</g>
<g>
</g>
<g>
</g>
<g>
</g>
</svg>
